<?xml version="1.0" encoding="utf-8"?>
<!-- Generator: Adobe Illustrator 23.1.1, SVG Export Plug-In . SVG Version: 6.00 Build 0)  -->
<svg version="1.1" id="レイヤー_1" xmlns="http://www.w3.org/2000/svg" xmlns:xlink="http://www.w3.org/1999/xlink" x="0px"
	 y="0px" width="67.7px" height="54.9px" viewBox="0 0 67.7 54.9" style="enable-background:new 0 0 67.7 54.9;"
	 xml:space="preserve">
<path style="fill:#FFFFFF;" d="M67.7,6.5c-2.5,1.1-5.2,1.9-8,2.2C62.6,7,64.8,4.2,65.8,1c-2.7,1.6-5.7,2.7-8.8,3.4
	C54.5,1.7,50.9,0,46.9,0C39.2,0,33,6.2,33,13.9c0,1.1,0.1,2.1,0.4,3.2C21.8,16.5,11.6,10.9,4.7,2.5c-1.2,2-1.9,4.4-1.9,7
	c0,4.8,2.5,9.1,6.2,11.5c-2.3-0.1-4.4-0.7-6.3-1.7v0.2c0,6.7,4.8,12.3,11.1,13.6c-1.2,0.3-2.4,0.5-3.7,0.5c-0.9,0-1.8-0.1-2.6-0.3
	c1.8,5.5,6.9,9.5,13,9.6c-4.8,3.7-10.7,5.9-17.2,5.9c-1.1,0-2.2-0.1-3.3-0.2c6.1,3.9,13.4,6.2,21.3,6.2c25.5,0,39.5-21.1,39.5-39.5
	l0-1.8C63.5,11.7,65.8,9.3,67.7,6.5z"/>
</svg>
