<?xml version="1.0" encoding="utf-8"?>
<!-- Generator: Adobe Illustrator 23.1.1, SVG Export Plug-In . SVG Version: 6.00 Build 0)  -->
<svg version="1.1" id="レイヤー_1" xmlns="http://www.w3.org/2000/svg" xmlns:xlink="http://www.w3.org/1999/xlink" x="0px"
	 y="0px" width="67.7px" height="64px" viewBox="0 0 67.7 64" style="enable-background:new 0 0 67.7 64;" xml:space="preserve">
<g>
	<g>
		<path style="fill:#FFFFFF;" d="M67.7,27.3C67.7,12.2,52.5,0,33.8,0C15.2,0,0,12.2,0,27.3C0,40.7,12,52,28.3,54.2
			c1.1,0.2,2.6,0.7,3,1.7c0.3,0.8,0.2,2.2,0.1,3c0,0-0.4,2.4-0.5,2.9c-0.1,0.8-0.7,3.3,2.9,1.8C37.5,62,53.3,52.1,60.4,44h0
			C65.3,38.7,67.7,33.3,67.7,27.3z M20.6,36.2h-6.7c-1,0-1.8-0.8-1.8-1.8V21.1c0-1,0.8-1.8,1.8-1.8c1,0,1.8,0.8,1.8,1.8v11.6h5
			c1,0,1.8,0.8,1.8,1.8C22.4,35.4,21.6,36.2,20.6,36.2z M27.6,34.4c0,1-0.8,1.8-1.8,1.8c-1,0-1.8-0.8-1.8-1.8V21.1
			c0-1,0.8-1.8,1.8-1.8c1,0,1.8,0.8,1.8,1.8V34.4z M43.7,34.4c0,0.8-0.5,1.4-1.2,1.7c-0.2,0.1-0.4,0.1-0.6,0.1
			c-0.6,0-1.1-0.3-1.4-0.7l-6.9-9.3v8.3c0,1-0.8,1.8-1.8,1.8c-1,0-1.8-0.8-1.8-1.8V21.1c0-0.8,0.5-1.4,1.2-1.7
			c0.2-0.1,0.4-0.1,0.6-0.1c0.6,0,1.1,0.3,1.4,0.7l6.9,9.3v-8.3c0-1,0.8-1.8,1.8-1.8c1,0,1.8,0.8,1.8,1.8V34.4z M54.6,26
			c1,0,1.8,0.8,1.8,1.8c0,1-0.8,1.8-1.8,1.8h-4.9v3.2h4.9c1,0,1.8,0.8,1.8,1.8c0,1-0.8,1.8-1.8,1.8h-6.7c-1,0-1.8-0.8-1.8-1.8v-6.7
			c0,0,0,0,0,0v-6.7c0-1,0.8-1.8,1.8-1.8h6.7c1,0,1.8,0.8,1.8,1.8c0,1-0.8,1.8-1.8,1.8h-4.9V26H54.6z"/>
	</g>
</g>
</svg>
